<svg id="Layer_1" data-name="Layer 1" xmlns="http://www.w3.org/2000/svg" viewBox="0 0 759 98">
  <defs>
    <style>
      .cls-1 {
        fill: #000000;
      }
    </style>
  </defs>
  <g>
    <path class="cls-1" d="M61.8,44.5V91.8a25.5,25.5,0,0,1-8.4,4.5,39.9,39.9,0,0,1-12.8,1.8,23.4,23.4,0,0,1-12.8-3.3c-4-2.4-6-5.7-6-10.1V41.4H5.8A25.5,25.5,0,0,1,.9,26.2a24.3,24.3,0,0,1,1.8-9.7,17.4,17.4,0,0,1,4.5-6.4H78a24.5,24.5,0,0,1,3.3,7.3A28.5,28.5,0,0,1,82.6,26c0,5.3-1.1,9.2-3.5,11.6a12.7,12.7,0,0,1-9.6,3.8H49.4a3,3,0,0,0-.2,1c0,.8.5,1.3,1.4,1.6a27.9,27.9,0,0,0,6.5.5Z" transform="translate(-0.9 -1)"/>
    <path class="cls-1" d="M88.2,89.2C80.7,82.2,77,72.5,77,60.4s3.5-21.7,10.5-28.7,16.4-10.6,27.8-10.6,20.8,3.7,27.8,11,10.6,16.8,10.6,28.6-3.4,21-10.2,27.9S127.5,99,115.9,99,95,95.7,88.2,89.2Zm25.6-29.8V71.2a2.3,2.3,0,0,0,1.6.5,1.9,1.9,0,0,0,1.6-.8,5.1,5.1,0,0,0,.4-2.5V58.7c0-4.3-.1-7.1-.5-8.5s-1.1-2.2-2.1-2.2a2.6,2.6,0,0,0-1.6.7C113.6,53.2,113.8,56.7,113.8,59.4Z" transform="translate(-0.9 -1)"/>
    <path class="cls-1" d="M191.4,9.4a24.8,24.8,0,0,1,8-6.3A25.7,25.7,0,0,1,210.6,1c5.4,0,9.9,1.5,13.3,4.5s5.3,7.6,5.3,13.1V63c0,6.7,1.6,11,4.9,13a4.5,4.5,0,0,1,.1,1.3v1.2c0,6.4-2,11.4-5.9,14.9a20.2,20.2,0,0,1-22.1,2.5,14.2,14.2,0,0,1-6.5-7c-1.5,0-2.3.7-2.3,2.2a4.6,4.6,0,0,0,.8,2.3,7.1,7.1,0,0,0,2.2,2.4,21.5,21.5,0,0,1-10.5,2.3,35,35,0,0,1-16.3-3.9,28.7,28.7,0,0,1-12-11.9c-3.5-6.1-5.2-13.4-5.2-22,0-11.5,3.3-20.5,9.9-27.1s14.9-9.8,25.1-9.8a33.7,33.7,0,0,1,15.7,3.4,2.3,2.3,0,0,0,.8-1.6c0-1.3-1.6-2.5-4.9-3.4a36.3,36.3,0,0,0-9.8-1.4A28,28,0,0,0,191.4,9.4Zm4.9,39.8a2,2,0,0,0-1.6-.7q-1.5,0-2.1,2.1c-.4,1.5-.5,4.3-.5,8.6v6.9a4.9,4.9,0,0,0,.4,2.5,1.9,1.9,0,0,0,1.6.8,2.2,2.2,0,0,0,1.6-.5v-9A76.4,76.4,0,0,1,196.3,49.2Z" transform="translate(-0.9 -1)"/>
    <path class="cls-1" d="M246.3,89.2c-7.5-7-11.3-16.7-11.3-28.8s3.6-21.7,10.6-28.7,16.3-10.6,27.8-10.6,20.7,3.7,27.8,11,10.6,16.8,10.6,28.6-3.4,21-10.2,27.9S285.6,99,273.9,99,253.1,95.7,246.3,89.2Zm25.6-29.8V71.2a2.2,2.2,0,0,0,1.6.5,1.6,1.6,0,0,0,1.5-.8,4.1,4.1,0,0,0,.5-2.5V58.7a48.2,48.2,0,0,0-.5-8.5c-.4-1.4-1.1-2.2-2.1-2.2a2.4,2.4,0,0,0-1.6.7C271.7,53.2,271.9,56.7,271.9,59.4Z" transform="translate(-0.9 -1)"/>
    <path class="cls-1" d="M331.6,97c-5.1,0-9-1.3-11.8-4s-4.1-6.6-4.1-12V20.5c0-3.5,3.5-6.3,10.4-8.7a71.9,71.9,0,0,1,23.4-3.5c15.1,0,26.9,3.6,35.4,10.7s13.7,19.3,13.7,34.6c0,13.7-4.4,24.4-13.3,32S364.3,97,348.9,97Zm25.5-46.5a47.6,47.6,0,0,0-.6-9.3c-.4-1.7-1.2-2.5-2.2-2.5a2.8,2.8,0,0,0-1.9.7c.1.8.2,1.8.4,3.2a74.4,74.4,0,0,1,.3,8.6v4.4c0,3-.1,5.3-.2,6.7s-.3,2.5-.4,3.5v1.6a2.8,2.8,0,0,0,1.9.7c1,0,1.8-.8,2.2-2.5a47.6,47.6,0,0,0,.6-9.3Z" transform="translate(-0.9 -1)"/>
    <path class="cls-1" d="M412.7,89.2c-7.5-7-11.2-16.7-11.2-28.8S405,38.7,412,31.7s16.4-10.6,27.8-10.6,20.8,3.7,27.9,11,10.5,16.8,10.5,28.6-3.4,21-10.2,27.9S452,99,440.4,99,419.5,95.7,412.7,89.2Zm25.6-29.8V71.2a2.3,2.3,0,0,0,1.6.5,1.8,1.8,0,0,0,1.6-.8,4.9,4.9,0,0,0,.5-2.5V58.7c0-4.3-.2-7.1-.6-8.5s-1-2.2-2-2.2a2.6,2.6,0,0,0-1.7.7C438.1,53.2,438.3,56.7,438.3,59.4Z" transform="translate(-0.9 -1)"/>
    <path class="cls-1" d="M515.9,9.4a24.8,24.8,0,0,1,8-6.3A26,26,0,0,1,535.1,1c5.5,0,9.9,1.5,13.3,4.5s5.3,7.6,5.3,13.1V63c0,6.7,1.7,11,4.9,13a4.5,4.5,0,0,1,.1,1.3v1.2c0,6.4-1.9,11.4-5.9,14.9s-7.7,4.7-12.9,4.7a18.2,18.2,0,0,1-9.2-2.2,13.6,13.6,0,0,1-6.4-7c-1.6,0-2.4.7-2.4,2.2a4.6,4.6,0,0,0,.8,2.3,8.3,8.3,0,0,0,2.2,2.4,21.5,21.5,0,0,1-10.5,2.3,35.3,35.3,0,0,1-16.3-3.9,29.2,29.2,0,0,1-12-11.9c-3.4-6.1-5.2-13.4-5.2-22,0-11.5,3.3-20.5,9.9-27.1s14.9-9.8,25.1-9.8a34.4,34.4,0,0,1,15.8,3.4,2.1,2.1,0,0,0,.7-1.6c0-1.3-1.6-2.5-4.9-3.4a36.3,36.3,0,0,0-9.8-1.4A28,28,0,0,0,515.9,9.4Zm4.9,39.8a2,2,0,0,0-1.6-.7q-1.5,0-2.1,2.1a50.5,50.5,0,0,0-.5,8.6v6.9a3.9,3.9,0,0,0,.5,2.5,1.6,1.6,0,0,0,1.5.8,2.2,2.2,0,0,0,1.6-.5v-9A76.4,76.4,0,0,1,520.8,49.2Z" transform="translate(-0.9 -1)"/>
    <path class="cls-1" d="M570.8,89.2c-7.5-7-11.3-16.7-11.3-28.8s3.6-21.7,10.6-28.7,16.3-10.6,27.8-10.6,20.8,3.7,27.8,11,10.6,16.8,10.6,28.6-3.4,21-10.2,27.9S610.1,99,598.5,99,577.6,95.7,570.8,89.2Zm25.6-29.8V71.2a2.2,2.2,0,0,0,1.6.5,1.9,1.9,0,0,0,1.6-.8,5.1,5.1,0,0,0,.4-2.5V58.7c0-4.3-.1-7.1-.5-8.5s-1.1-2.2-2.1-2.2a2.4,2.4,0,0,0-1.6.7C596.2,53.2,596.4,56.7,596.4,59.4Z" transform="translate(-0.9 -1)"/>
    <path class="cls-1" d="M642.8,64.4a19.2,19.2,0,0,1,13.9-5.7,19.4,19.4,0,0,1,14,5.7,18.9,18.9,0,0,1,5.9,13.8,18.4,18.4,0,0,1-5.9,13.7,19.4,19.4,0,0,1-14,5.7,19,19,0,0,1-13.9-5.7A18.3,18.3,0,0,1,637,78.2,18.8,18.8,0,0,1,642.8,64.4Z" transform="translate(-0.9 -1)"/>
    <path class="cls-1" d="M684.5,64.4a19,19,0,0,1,13.9-5.7,19.6,19.6,0,0,1,14,5.7,18.8,18.8,0,0,1,5.8,13.8,18.3,18.3,0,0,1-5.8,13.7,20,20,0,0,1-28,0,18.7,18.7,0,0,1-5.8-13.7A18.9,18.9,0,0,1,684.5,64.4Z" transform="translate(-0.9 -1)"/>
    <path class="cls-1" d="M726.1,64.4A19.2,19.2,0,0,1,740,58.7a19.8,19.8,0,0,1,14.1,5.7,18.8,18.8,0,0,1,5.8,13.8,18.3,18.3,0,0,1-5.8,13.7A19.6,19.6,0,0,1,740,97.6a19,19,0,0,1-13.9-5.7,18.3,18.3,0,0,1-5.8-13.7A18.8,18.8,0,0,1,726.1,64.4Z" transform="translate(-0.9 -1)"/>
  </g>
</svg>
