<svg id="Layer_1" data-name="Layer 1" xmlns="http://www.w3.org/2000/svg" viewBox="0 0 81 81" preserveAspectRatio="none"><defs><style>.cls-1{fill:#fff740;stroke-width:7px;}.cls-1,.cls-3,.cls-4{stroke:#000;stroke-miterlimit:10;}.cls-2{fill:none;}.cls-3{fill:#fff;}.cls-3,.cls-4{stroke-width:0.25px;}</style></defs><circle class="cls-1" cx="40.5" cy="40.5" r="37"/><path class="cls-2" d="M37.2,78.1c6.1-8.7,8.3-8.8,8.3-13.5a34,34,0,0,0-1.4-9.8,6.6,6.6,0,0,0-2.8-3.6,6.5,6.5,0,0,0-4.7-1c-2.8.3-3.7,3.7-4.3,4.6a14.5,14.5,0,0,1-3.7,3.7,15.7,15.7,0,0,1-4.5,1.7,8.6,8.6,0,0,1-3.8.2s.9,3.7.4,3.9-3.4-2-5.2-3.7c-5.4-5.4-4.6-12.9-4.5-13.7a14.2,14.2,0,0,1,3.6-8.1c1.2-1.2,3.3-2.4,4.2-2.1a3.5,3.5,0,0,0,1.3.2c.7-.1.7-1.3,1.3-1.4s.8.2,1.3.1.5-.4,1-.7a2.7,2.7,0,0,1,1.7-.3,4.7,4.7,0,0,0,3.7-2.4c.5-.9.1-1.4.2-3.9s.3-2.2.4-2.9l-1.6,1.2s.2-2.3,1.6-3.1S28.4,22,28.4,22a3.2,3.2,0,0,1,2.5-1.4V18.2a5.1,5.1,0,0,1,2.9,1,4.4,4.4,0,0,0-.8-4.4s4.3.6,5.4,2.9c0,0,1.8-1.3,1.7-2.9,0,0,2,1.4,2.2,2.4s2-1.2,1.5-2.4A2.8,2.8,0,0,0,46.1,16c1.7.2,8.6.6,12.1,3.6s9.9,9.7,12,16.7A57.8,57.8,0,0,1,72.8,55a36.9,36.9,0,0,1-.8,6.8" transform="translate(-0.5 -0.5)"/><path d="M70.2,36.3c-2.1-7-8.4-13.7-12-16.7S47.8,16.2,46.1,16a2.8,2.8,0,0,1-2.3-1.2c.5,1.2-1.5,2.4-1.5,2.4s-2.2-2.4-2.2-2.4c.1,1.6-1.7,2.9-1.7,2.9-1.1-2.3-5.4-2.9-5.4-2.9a4.4,4.4,0,0,1,.8,4.4,5.1,5.1,0,0,0-2.9-1v2.4A3.2,3.2,0,0,0,28.4,22s2.7.7,1.3,1.5-1.6,3.1-1.6,3.1l1.6-1.2c-.1.7-.3,1.7-.4,2.9s.3,3-.2,3.9a4.7,4.7,0,0,1-3.7,2.4,2.7,2.7,0,0,0-1.7.3c-.5.3-.6.6-1,.7s-.9-.2-1.3-.1-.6,1.3-1.3,1.4a3.5,3.5,0,0,1-1.3-.2c-.9-.3-3,.9-4.2,2.1A14.2,14.2,0,0,0,11,46.9c-.1.8-.9,8.3,4.5,13.7,1.8,1.7,3.7,4.2,5.2,3.7s-.4-3.9-.4-3.9a8.6,8.6,0,0,0,3.8-.2,15.7,15.7,0,0,0,4.5-1.7,14.5,14.5,0,0,0,3.7-3.7c.6-.9,1.5-4.3,4.3-4.6a6.5,6.5,0,0,1,4.7,1,6.6,6.6,0,0,1,2.8,3.6,34,34,0,0,1,1.4,9.8c0,4.7-2.2,4.8-8.3,13.5H41A37.4,37.4,0,0,0,72,61.8a36.9,36.9,0,0,0,.8-6.8A57.8,57.8,0,0,0,70.2,36.3Z" transform="translate(-0.5 -0.5)"/><path class="cls-3" d="M24.5,53.2a29.9,29.9,0,0,0,6.8-6.9c2.6-3.1,5.2-5.5,9.8-7,8.7-2.8,13.6,2.1,13.6,2.1-2-3.9-9.2-4.3-13.7-2.7a25.4,25.4,0,0,0-11,7.9,74,74,0,0,1-5.5,5.6s.5-5.3-3.4-14.8c-.4-1,.7-1.6,1.1-1.3s1,.1,1.3-.3a1.8,1.8,0,0,1,1.6-.6c.7.2,2.3-.1,3.9-1.6a2.7,2.7,0,0,0,1.1-2.5,12.2,12.2,0,0,1,2.3-8.9c3-3.7,7.9-3.8,12-2.6a46.9,46.9,0,0,1,13.2,7.3c2.2,2.1,3.8,3.2,4.7,5.1s1.1,5-1.3,9.1-5.6,6.7-8.9,7.5-6.4-.2-9.2-.4a10.9,10.9,0,0,0-6.2.8c-2.6,1-5.4,4.8-5.4,4.8a8.1,8.1,0,0,1-3.4.3A14.9,14.9,0,0,1,24.5,53.2Z" transform="translate(-0.5 -0.5)"/><path class="cls-4" d="M27.8,45a3.4,3.4,0,0,1-1.5-2.5,3.9,3.9,0,0,1,.7-3.1.9.9,0,0,1,.7-.5c.5,0,.8,1.1,1,1.7a6.5,6.5,0,0,1-.2,3.3C28.4,44.1,28,45.1,27.8,45Z" transform="translate(-0.5 -0.5)"/><path d="M44.8,26.4a2.8,2.8,0,0,0-.5,1.6,3.1,3.1,0,0,0,6.2,0Z" transform="translate(-0.5 -0.5)"/></svg>