<svg id="Layer_1" data-name="Layer 1" xmlns="http://www.w3.org/2000/svg" viewBox="0 0 381.4 81">
  <defs>
    <style>
      .cls-1 {
        fill: #fff740;
        stroke-width: 7px;
      }

      .cls-1, .cls-3, .cls-4 {
        stroke: #000;
        stroke-miterlimit: 10;
      }

      .cls-2 {
        fill: none;
      }

      .cls-3 {
        fill: #fff;
      }

      .cls-3, .cls-4 {
        stroke-width: 0.25px;
      }
    </style>
  </defs>
  <circle class="cls-1" cx="188.6" cy="40.5" r="37"/>
  <g>
    <path class="cls-2" d="M186.4,78.1c6.1-8.7,8.3-8.8,8.3-13.5a34,34,0,0,0-1.4-9.8,6.7,6.7,0,0,0-7.5-4.6c-2.8.3-3.7,3.7-4.2,4.6a16.7,16.7,0,0,1-3.8,3.7,15.7,15.7,0,0,1-4.5,1.7,8.1,8.1,0,0,1-3.7.2s.8,3.7.4,3.9-3.5-2-5.2-3.7c-5.5-5.4-4.7-12.9-4.6-13.7a14.9,14.9,0,0,1,3.6-8.1c1.2-1.2,3.3-2.4,4.3-2.1a2.9,2.9,0,0,0,1.2.2c.7-.1.7-1.3,1.4-1.4s.7.2,1.2.1.6-.4,1-.7a2.7,2.7,0,0,1,1.7-.3,4.7,4.7,0,0,0,3.7-2.4c.5-.9.1-1.4.2-3.9s.3-2.2.4-2.9l-1.6,1.2s.2-2.3,1.6-3.1-1.3-1.5-1.3-1.5a3.2,3.2,0,0,1,2.5-1.4V18.2a5.5,5.5,0,0,1,3,1,4.7,4.7,0,0,0-.8-4.4s4.2.6,5.3,2.9c0,0,1.8-1.3,1.7-2.9,0,0,2,1.4,2.2,2.4s2-1.2,1.6-2.4a2.8,2.8,0,0,0,2.3,1.2c1.7.2,8.5.6,12,3.6s10,9.7,12,16.7A55.2,55.2,0,0,1,222,55a52.9,52.9,0,0,1-.7,6.8" transform="translate(-1.6 -0.5)"/>
    <path d="M219.4,36.3c-2-7-8.4-13.7-12-16.7s-10.3-3.4-12-3.6a2.8,2.8,0,0,1-2.3-1.2c.4,1.2-1.6,2.4-1.6,2.4s-2.2-2.4-2.2-2.4c.1,1.6-1.7,2.9-1.7,2.9-1.1-2.3-5.3-2.9-5.3-2.9a4.7,4.7,0,0,1,.8,4.4,5.5,5.5,0,0,0-3-1v2.4a3.2,3.2,0,0,0-2.5,1.4s2.7.7,1.3,1.5-1.6,3.1-1.6,3.1l1.6-1.2c-.1.7-.3,1.7-.4,2.9s.3,3-.2,3.9a4.7,4.7,0,0,1-3.7,2.4,2.7,2.7,0,0,0-1.7.3c-.4.3-.6.6-1,.7s-.8-.2-1.2-.1-.7,1.3-1.4,1.4a2.9,2.9,0,0,1-1.2-.2c-1-.3-3.1.9-4.3,2.1a14.9,14.9,0,0,0-3.6,8.1c-.1.8-.9,8.3,4.6,13.7,1.7,1.7,3.7,4.2,5.2,3.7s-.4-3.9-.4-3.9a8.1,8.1,0,0,0,3.7-.2,15.7,15.7,0,0,0,4.5-1.7,16.7,16.7,0,0,0,3.8-3.7c.5-.9,1.4-4.3,4.2-4.6a6.7,6.7,0,0,1,7.5,4.6,34,34,0,0,1,1.4,9.8c0,4.7-2.2,4.8-8.3,13.5h3.8a37.7,37.7,0,0,0,31.1-16.4A52.9,52.9,0,0,0,222,55,55.2,55.2,0,0,0,219.4,36.3Z" transform="translate(-1.6 -0.5)"/>
  </g>
  <path class="cls-3" d="M173.7,53.2a29.9,29.9,0,0,0,6.8-6.9c2.6-3.1,5.2-5.5,9.8-7,8.7-2.8,13.6,2.1,13.6,2.1-2-3.9-9.2-4.3-13.7-2.7a25.4,25.4,0,0,0-11,7.9,74,74,0,0,1-5.5,5.6s.5-5.3-3.4-14.8c-.4-1,.7-1.6,1.1-1.3s1,.1,1.4-.3a1.5,1.5,0,0,1,1.5-.6c.7.2,2.3-.1,4-1.6a2.8,2.8,0,0,0,1-2.5c.1-1-.7-5.1,2.3-8.9s7.9-3.8,12-2.6a46.9,46.9,0,0,1,13.2,7.3c2.3,2.1,3.8,3.2,4.7,5.1s1.2,5-1.2,9.1-5.7,6.7-9,7.5-6.4-.2-9.1-.4-3.8-.2-6.3.8-5.4,4.8-5.4,4.8a8.1,8.1,0,0,1-3.4.3A14.9,14.9,0,0,1,173.7,53.2Z" transform="translate(-1.6 -0.5)"/>
  <path class="cls-4" d="M177,45a3.7,3.7,0,0,1-1.5-2.5,4.4,4.4,0,0,1,.7-3.1c.2-.2.4-.5.7-.5s.9,1.1,1,1.7a6.5,6.5,0,0,1-.2,3.3C177.6,44.1,177.3,45.1,177,45Z" transform="translate(-1.6 -0.5)"/>
  <path d="M194,26.4a2.8,2.8,0,0,0-.5,1.6,3.1,3.1,0,1,0,6.2,0Z" transform="translate(-1.6 -0.5)"/>
  <g>
    <path d="M247.3,58.8a7.1,7.1,0,0,1-5.2-1.8,7,7,0,0,1-1.9-5.3v-27c0-1.5,1.6-2.8,4.7-3.8a31.1,31.1,0,0,1,10.4-1.6c6.7,0,12,1.6,15.8,4.8s6.1,8.6,6.1,15.4-2,10.9-5.9,14.2-9.4,5.1-16.3,5.1Zm11.4-20.7a18.2,18.2,0,0,0-.3-4.1c-.2-.8-.5-1.1-1-1.1a1.1,1.1,0,0,0-.8.3,11.5,11.5,0,0,0,.2,1.4,33.6,33.6,0,0,1,.1,3.8v2a21.9,21.9,0,0,1-.1,2.9,10.4,10.4,0,0,0-.1,1.6v.7a1.1,1.1,0,0,0,.8.3c.5,0,.8-.3,1-1.1a18.2,18.2,0,0,0,.3-4.1Z" transform="translate(-1.6 -0.5)"/>
    <path d="M283.4,54.4c-3.3-3.2-5-7.5-5-12.9s1.6-9.7,4.7-12.8A17.1,17.1,0,0,1,295.5,24a16.6,16.6,0,0,1,12.4,4.9,17.8,17.8,0,0,1,4.7,12.7c0,5.3-1.5,9.4-4.5,12.5s-7.2,4.6-12.3,4.6S286.5,57.3,283.4,54.4Zm11.4-13.3v5.2a.8.8,0,0,0,.7.2,1,1,0,0,0,.8-.3,2.7,2.7,0,0,0,.2-1.1V40.8a15.1,15.1,0,0,0-.3-3.8c-.1-.7-.4-1-.9-1a.9.9,0,0,0-.7.3A45.5,45.5,0,0,1,294.8,41.1Z" transform="translate(-1.6 -0.5)"/>
    <path d="M329.4,19.5a11.7,11.7,0,0,1,3.6-2.8,11.6,11.6,0,0,1,4.9-.9,8.6,8.6,0,0,1,6,2,7.7,7.7,0,0,1,2.3,5.8V43.4c0,2.9.8,4.9,2.2,5.8v1.1a8.3,8.3,0,0,1-2.6,6.6,8,8,0,0,1-5.7,2.1,7.6,7.6,0,0,1-4.1-1,6.2,6.2,0,0,1-2.9-3.1c-.7,0-1,.3-1,1a2.2,2.2,0,0,0,.3,1,5.2,5.2,0,0,0,1,1.1,9.4,9.4,0,0,1-4.7,1,15.9,15.9,0,0,1-7.2-1.7,13.1,13.1,0,0,1-5.4-5.3,20,20,0,0,1-2.3-9.8c0-5.1,1.5-9.2,4.4-12.1a15.1,15.1,0,0,1,11.2-4.4,15.4,15.4,0,0,1,7,1.5.9.9,0,0,0,.3-.6c0-.6-.7-1.2-2.1-1.6a16.7,16.7,0,0,0-4.4-.6A13.2,13.2,0,0,0,329.4,19.5Zm2.2,17.7a1.1,1.1,0,0,0-.8-.3c-.4,0-.7.3-.9,1a26.9,26.9,0,0,0-.2,3.8v3a2.9,2.9,0,0,0,.2,1.2.8.8,0,0,0,.7.3l.7-.2V42A30.5,30.5,0,0,1,331.6,37.2Z" transform="translate(-1.6 -0.5)"/>
    <path d="M353.8,54.4c-3.3-3.2-5-7.5-5-12.9s1.6-9.7,4.7-12.8A17.1,17.1,0,0,1,365.9,24a16.8,16.8,0,0,1,12.4,4.9A17.8,17.8,0,0,1,383,41.6c0,5.3-1.5,9.4-4.5,12.5s-7.2,4.6-12.4,4.6S356.8,57.3,353.8,54.4Zm11.4-13.3v5.2a.8.8,0,0,0,.7.2c.4,0,.6-.1.7-.3s.2-.6.2-1.1V40.8a16.9,16.9,0,0,0-.2-3.8c-.2-.7-.5-1-.9-1a.9.9,0,0,0-.7.3C365.1,38.3,365.2,39.9,365.2,41.1Z" transform="translate(-1.6 -0.5)"/>
  </g>
  <path d="M28.7,35V56A9.9,9.9,0,0,1,25,58a16.4,16.4,0,0,1-5.7.8,10.1,10.1,0,0,1-5.7-1.4,5.1,5.1,0,0,1-2.7-4.5V33.6H3.8A11.7,11.7,0,0,1,2.4,22.5a7.8,7.8,0,0,1,2-2.8H36a10.6,10.6,0,0,1,1.4,3.2,13.1,13.1,0,0,1,.6,3.8c0,2.4-.5,4.1-1.6,5.2a5.6,5.6,0,0,1-4.2,1.7h-9c0,.1-.1.3-.1.4s.2.6.7.8a14.3,14.3,0,0,0,2.8.2Z" transform="translate(-1.6 -0.5)"/>
  <path d="M40.5,54.9c-3.4-3.2-5-7.4-5-12.8s1.6-9.7,4.7-12.8,7.3-4.7,12.4-4.7A16.7,16.7,0,0,1,65,29.4c3.1,3.3,4.6,7.5,4.6,12.8s-1.5,9.3-4.5,12.4S58,59.2,52.8,59.2,43.5,57.8,40.5,54.9ZM51.9,41.6v5.3l.7.2a.7.7,0,0,0,.7-.4,2.7,2.7,0,0,0,.2-1.1V41.3a26.9,26.9,0,0,0-.2-3.8q-.3-.9-.9-.9a1.1,1.1,0,0,0-.8.3C51.8,38.8,51.9,40.4,51.9,41.6Z" transform="translate(-1.6 -0.5)"/>
  <path d="M86.4,19.4A12.1,12.1,0,0,1,90,16.5a12.1,12.1,0,0,1,5-.9,8.8,8.8,0,0,1,5.9,2,7.5,7.5,0,0,1,2.4,5.8V43.2c0,3,.7,4.9,2.2,5.8v1.1a8.7,8.7,0,0,1-2.6,6.7A9.6,9.6,0,0,1,93,57.9a6.2,6.2,0,0,1-2.8-3.2,1,1,0,0,0-1.1,1,1.9,1.9,0,0,0,.4,1.1,2.8,2.8,0,0,0,.9,1,9,9,0,0,1-4.6,1,15.4,15.4,0,0,1-7.3-1.7,12.9,12.9,0,0,1-5.3-5.3A19,19,0,0,1,70.9,42c0-5.1,1.4-9.1,4.3-12a15.1,15.1,0,0,1,11.2-4.4,15.1,15.1,0,0,1,7,1.5.9.9,0,0,0,.4-.7c0-.6-.7-1.1-2.2-1.5a12.9,12.9,0,0,0-4.3-.7A10.8,10.8,0,0,0,86.4,19.4Zm2.2,17.7a.9.9,0,0,0-.7-.3q-.7,0-.9.9a15.1,15.1,0,0,0-.3,3.8v3.1a2.7,2.7,0,0,0,.2,1.1,1,1,0,0,0,.7.4,1,1,0,0,0,.8-.3v-4A31.8,31.8,0,0,1,88.6,37.1Z" transform="translate(-1.6 -0.5)"/>
  <path d="M110.9,54.9c-3.4-3.2-5-7.4-5-12.8s1.5-9.7,4.7-12.8,7.2-4.7,12.3-4.7,9.3,1.6,12.4,4.8,4.7,7.5,4.7,12.8-1.5,9.3-4.5,12.4-7.1,4.6-12.3,4.6S113.9,57.8,110.9,54.9Zm11.4-13.3v5.3l.7.2a.8.8,0,0,0,.7-.4,2.7,2.7,0,0,0,.2-1.1V41.3a15.1,15.1,0,0,0-.3-3.8q-.1-.9-.9-.9a.9.9,0,0,0-.7.3C122.2,38.8,122.3,40.4,122.3,41.6Z" transform="translate(-1.6 -0.5)"/>
</svg>
